<svg class="main-usliga__icon" width="140" height="174" xmlns="http://www.w3.org/2000/svg"><path d="M127.298 66.767c1 1 7 1.75 7.5 2.5s4.25 6 4.25 7-3.5 40-3.5 41-11.5 11.75-11.75 11.75-5-5.5-6.75-6-6.25-2-7.5-1.25-13 7-13.25 6.75c.25.25-14.5-2-15.75-.75s-15 11.25-15.5 12.5-6.75 1.25-9.25 1.25-19.25-2.75-19.5-3c.25.25-5.5-11.5-5.5-12.25s-6.25-5-6.75-6-4.5-9.5-4.5-11-.25-7-.5-7.25c.25.25-3.75-3.5-4-3.75.25.25 2.25-75.25 2-75.5.25.25 2.25-3.75 2-4 .25.25 0-5.5.25-6.75s18.25-11.5 19.5-11 18.5 7.5 18.25 7.25c.25.25 16.25 11.5 16 11.25.25.25 4 0 3.75-.25.25.25 31.75 15 32.25 15.5s11.25 8.5 11.75 9.5 6 16.25 6 17.25-.5 4.25.5 5.25zm-126.25 79.25c-.25 1.5.5 8 1.5 9.75s7.75 3.75 7.5 3.5c.25.25 10.75-4.5 10.5-4.75.25.25 6-6.75 6-7.5s-2-4-4.5-5.75-8.5-5-9.5-4.75-11.25 8-11.5 9.5zm22.5 21.75c0 .25 5.5 4.25 6.25 4.5s6.5-1.5 6.25-1.75c.25.25 15.5-10.5 15.25-10.75.25.25.25-6.75 0-6.75s-16.25-2.25-18.25-1.5-10.75 8-10.75 8.5 1.25 7.5 1.25 7.75z" stroke-width="2" stroke="#fff" fill="none"/><path d="M123.798 128.517c3.5 5 5.5 9.5 6.5 11.25s9 17.25 8.75 17c.25.25-6.25 5.75-8 7.25s-21 9-21.25 8.75c.25.25-42.75-.5-43-.75.25.25-10.25-4.5-10.75-6s.5-10 2-11.5 6.5-13.5 6.25-13.75" stroke-width="2" stroke="#fff" fill="none"/><path d="M23.298 165.517l11.75-8.75 14.5 3.25" stroke="#fff" fill="none"/><path d="M57.298 141.267l-9.25-17.75-21-12.75-7.5-7.75m36.75 55.75l16.5-13.25 7.5-4.5 14.5.75 14.25-8 18.25 11.25h4.75m-84-21.5c4-3.75 19.25-11 20.5-11.75s20.25-7 20-7.25c.25.25 20.75.5 20.5.25.25.25 14.75-17.25 14.5-17.5.25.25 8.5 2 8.25 1.75.25.25 7.25-7.25 7-7.5" stroke-width="null" stroke="#fff" fill="none"/><path d="M127.798 144.767l-17.5 6.5c.25.25 5.75 14 5.25 14.75s-6.5 7-6.75 6.75M27.8 111.018l-1.5-50.5c3.25-1.5 6-2.25 10.5-1.25s73.249 5 72.999 4.75c.25.25 14.25 24 14 23.75M42.798 2.518l16 14.25 13.5 8 40.75 21 3 11 9 16 10-2m-119-15.751l10.75 9.75m-10.75 27l10.75 9.75m-10.75-15l10.75 9.75m-10.75-15l10.75 9.75m-10.75-15l10.75 9.75m-10.75-15l10.75 9.75m-10.75-15l10.75 9.75m-10.75-15l10.75 9.75" stroke-width="null" stroke="#fff" fill="none"/><path d="M48.048 60.518l-9.75-13.5-14.75 1.25v-6c.25.25 7.25-7.5 8.75-7s4.75 3 4.5 2.75c.25.25 7.75-7 7.5-7.25.25.25 1-6.5.75-6.75.25.25 13.25-7.5 13-7.75m65 71.249l1.75-15.25m-16 61.5l5-11.5m-3.25 29.5c-.25 0-15.75-9.5-16-9.75m-12 0l1.25-13.75m9.5 13.75l1.25-13.75m-4.5 13.75l1.25-13.75m-4.5 13.75l1.25-13.75m-43.5-104.249l-6.25-8.5 9.75 6m24.25 3c0-.5.5-5.5.25-5.75m41.5 51.75l4.75-10m-10 3.749l6-11.999m-3.5 15l5.5-10.5m-.25-.5l1.75-15m-18.75-2.75l1.5-7m9.25 12.5l1.5-7m-4.75 4.75l1.5-7m-5 5.5l1.5-7" stroke-width="null" stroke="#fff" fill="none"/></svg>