<svg class="main-usliga__icon" xmlns="http://www.w3.org/2000/svg" width="237" height="155"><path d="M38.25 76h-34c.25 0-2-.262-2 2.25s-.25 3.5 3 4.25 7.5 1.5 7.25 1.5c.25 0 2 5.25 1.5 8s-3.5 7.5-3.75 7.5c.25 0-7-2-7.25-2 .25 0-2 .25-2 2v30.25c0 .004 1 5.5 4 7s15.75 4.5 15.5 4.5c.25 0-3.833-5-3.5-11.5.333-6.5 4.417-12.917 8.917-15.667S34.5 109.75 39.75 110s9.167 1.5 12.5 4.25S58.75 121 60 124.5s2 7.75 2 9.75-1 4-1.25 4c.25 0 53.25 0 53.25-.25 0 .25 0-9 .75-11.75s1.75-8.25 5.75-12.5 10-7.5 15.5-8.25 13 0 12.75 0c.25 0 .25-6.5 0-6.75 0 .245-7.75-6.75-11.5-11.5-2-2.75-7-13.25-7.5-13.75.25 0-11.25-31.75-14.25-39-1.5-5.25-8.75-22.75-11-24.5s-7.5-8.5-12-8.75S59 1.25 58.75 1c.25.25-7.75.75-11.25 3.25s-8.75 8.75-9 12.5-.25 52.752-.5 59.5" stroke-width="2" stroke="#fff" fill="none"/><path d="M122.75 73.25h-9.5l-6 3.5c1.75 1.75 7.75 6.75 8.5 8s3.75 6.5 3.5 6.5c.25 0-5.75 9.75-6 9.75.25 0-20.252 0-20.5-.25.248.25-1.75-12-3.25-15s-6.25-9-8.25-9.25-38 0-37.75 0 .25-57.502-.25-57.75c.25.245 1.75-5.5 3.75-7.75s7.5-4.5 8.25-4.5 34.764 0 34.75-.25c.014.25 8 4 10.5 9s16 34.002 22.25 58z" stroke-width="2" stroke="#fff" fill="none"/><path d="M110.5 79.75l11.5-1 2.5 12.75-4.75 6.5c.25 0-3.25 9-4.25 12.25s-2.75 10.75-3 9.75" stroke="#fff" fill="none"/><path d="M14.25 104.5l98.75-.25-2.75 13L91 117" stroke="#fff" fill="none"/><path d="M90.75 104.5L90.5 117c.25 0-.5 2 1 2.75s3.25 1 3 1c.25 0 21.751 0 21.75-.25m-54.75 9.25l52.75-.25M25.274 75.75l12.5 6.5h5.75l11.75 16.5-.25 5.75M117.5 73l-7.25-14.5h-8l-.25 2h-2.5l-1.75-3.75-3 1-3-3.5-3.25 3L91.75 61c.25 0-1.5 4-1.5 3.75s4.75 6.75 4.5 6.75c.25 0-2.25 2.5-2.5 2.5.25 0 7.75 12.75 7.5 12.75.25 0-8.25 5-8.5 5" stroke="#fff" fill="none"/><path d="M94.5 72.25h7.5L107.5 87h9m48.75 42.5V27.25H156v6.25m-118.25 49l-.25 22" stroke-width="null" stroke="#fff" fill="none"/><path d="M47.5 87.25l-10 .25" stroke="#fff" fill="none"/><path d="M55 99.25l-17.5.5M53 95.5l-15.5.5m12.75-4.75l-12.75.5" stroke-width="null" stroke="#fff" fill="none"/><path d="M149.25 99c.25-1.75 4-3.75 5.75-4.5s5.25-1.5 5-1.5c.25 0 .25 15.252 0 15.25 0 .008-4-.25-6-1.25s-5-2.75-4.75-4.25-.25-2 0-3.75z" stroke="#fff" fill="none"/><path d="M165.5 71.25h2.25v58.25" stroke-width="null" stroke="#fff" fill="none"/><path d="M165.75 134l69.25-2.25-.25-2.75-67.25.25m.25-6.5c.5 0 61.5-2.25 61.25-2.25.25 0 .25-2.264-.25-2.25.25 0-61.25-.25-61.5-.25M156.5 38.75v54.5m.5 21.5v-7.25m-10.25-68.75h7.75v22.5h-7.75zm0-5.25H161v5.25h-14.25zm8 60.75v-32.5m-4 36v-36.5m6.997 54.25H165m-8.5-85h8.5m-3.886 5.388H165m-8.5 8.612h8.5m-8.5 2.75h8.5M156.5 50h8.5m-8.5 2.75h8.5m-8.5 2.75h8.5m-8.5 2.75h8.5M156.5 61h8.5m-8.5 2.75h8.5m-8.5 2.75h8.5m-8.5 2.75h8.5M156.5 72h8.5m-8.5 2.5h8.5m-8.5 2.75h8.5M156.5 80h8.5m-8.5 2.5h8.5m-8.5 2.75h8.5M156.5 88h8.5m-8.5 2.75h8.5m-8.5 2.75h8.5m-4.634 2.75H165M160.49 99H165m-4.884 2.75H165m-5.133 2.75H165m-4.759 2.75H165m-8.5 2.75h8.5m-8.5 2.75h8.5m-8.5-71.25h8.5m-8.5-2.619h8.5m-56.623 18.622C100.179 38.597 94.992 27.22 94.824 27.22c-.167 0-6.692-12.716-8.366-15.058-1.673-2.343-4.684-4.685-4.684-4.853m20.245 51.198L89.303 28.892c0 .168-4.852-9.871-5.856-11.21-1.004-1.339-4.016-7.027-8.868-7.362-4.852-.335-25.267 0-25.432-.167m-3.514-5.522l-7.194-.167c0 .167-3.849.67-7.195 3.514s-5.689 6.354-5.689 10.039v56.887" stroke-width="null" stroke="#fff" fill="none"/><path d="M41.618 10.487c-1.339 0-3.514 0-5.354 1.172-1.841 1.17-4.016 2.677-4.35 5.856-.335 3.179 0 57.9 0 57.891m-6.694-3.011l6.693-.168M25.221 58.34l6.692-.168m-6.693 3.682l6.693-.168m-6.693 3.681l6.693-.167m-6.693 3.681l6.693-.167" stroke-width="null" stroke="#fff" fill="none"/><ellipse transform="rotate(49.82 88.048 53.655)" ry="8.7" rx="3.263" cy="53.655" cx="88.048" stroke-width="null" stroke="#fff" fill="none"/><ellipse ry="16.062" rx="16.062" cy="131.625" cx="41.283" stroke-width="null" stroke="#fff" fill="none"/><ellipse ry="21.751" rx="21.751" cy="131.29" cx="143.681" stroke-width="null" stroke="#fff" fill="none"/><ellipse ry="9.202" rx="9.202" cy="130.621" cx="144.183" stroke-width="null" stroke="#fff" fill="none"/><ellipse ry="6.776" rx="6.776" cy="131.206" cx="41.534" stroke-width="null" stroke="#fff" fill="none"/><ellipse ry="3.681" rx="3.681" cy="130.453" cx="144.183" stroke-width="null" stroke="#fff" fill="none"/><ellipse ry="3.179" rx="3.179" cy="131.123" cx="41.45" stroke-width="null" stroke="#fff" fill="none"/></svg>