<svg width="161" height="171" class="main-usliga__icon" xmlns="http://www.w3.org/2000/svg"><rect rx="8" height="40.232" width="71.233" y="26.053" x="12.194" stroke-width="null" stroke="#fff" fill="none"/><path stroke-width="2" stroke="#fff" fill="none" d="M1 16.515h97v142H1z"/><path stroke-width="2" stroke="#fff" fill="none" d="M97.957 52.492h61.991v49.743H97.957zm.999 50.244l18.998 29.995m41.494-29.746L140.2 132.481m-22.246-.001c0-.25 0 12.252-.25 12.249.25.003 20.511 0 20.497-.25.013.25 0 7.754-.25 7.749.25.004 14.5 0 14.498 0 .002 0 0-12.998 0-12.998s-7.749-6.25-7.999-6.25c.25 0-26.496-.25-26.496-.5z"/><ellipse ry="4.874" rx="4.874" cy="143.104" cx="145.325" stroke="#fff" fill="none"/><path stroke="#fff" fill="none" d="M36.965 0h24.496v16.248H36.965z"/><path stroke="#fff" fill="none" d="M40.465 3h17.747v10.249H40.465zm21.047 0H77.26v13.936H61.512z"/><path d="M75.63 3.181l-.062 12.663M63.53 3.182l-.063 12.662M65.65 3.181l-.062 12.663m2.121-12.663l-.062 12.663m2.058-12.663l-.062 12.663M71.7 3.181l-.061 12.663m2.058-12.6l-.062 12.662" stroke-width="null" stroke="#fff" fill="none"/><path stroke="#fff" fill="none" d="M21.155 3h15.748v13.936H21.155z"/><path d="M35.274 3.181l-.063 12.663M23.11 3.182l-.062 12.662m2.245-12.663l-.062 12.663m2.121-12.663l-.063 12.663m2.059-12.663l-.063 12.663m2.059-12.663l-.063 12.663M33.34 3.181l-.063 12.663m-31.5 3.431l96.31-.063" stroke-width="null" stroke="#fff" fill="none"/><rect rx="8" height="34.244" width="65.12" y="120.943" x="15.188" stroke-width="null" stroke="#fff" fill="none"/><rect rx="8" height="40.232" width="71.233" y="118.054" x="12.194" stroke-width="null" stroke="#fff" fill="none"/><path stroke-width="null" stroke="#fff" fill="none" d="M22.861 133.918h3.555v13.099h-3.555zm0-92.001h3.555v13.099h-3.555z"/><rect rx="8" height="40.232" width="71.233" y="72.887" x="12.194" stroke-width="null" stroke="#fff" fill="none"/><path stroke-width="null" stroke="#fff" fill="none" d="M22.861 88.751h3.555v13.099h-3.555z"/><rect rx="8" height="34.244" width="65.12" y="28.943" x="15.188" stroke-width="null" stroke="#fff" fill="none"/><rect rx="8" height="34.244" width="65.12" y="75.943" x="15.188" stroke-width="null" stroke="#fff" fill="none"/><path d="M81.753 159.391v11.15l11.062-.165" stroke-width="2" stroke="#fff" fill="none"/><path d="M22.919 121.044l33.667 34.061m-14.334-33.937L75.92 154.67m-44.668-33.626l33.667 34.061m-37.667-34.061l33.667 34m-38-126.028L56.586 63.14M42.252 29.016l33.667 33.5m-44.667-33.5L64.92 63.14M27.252 29.016L60.92 63.14M22.919 75.944l33.667 34.248M42.252 75.944l33.667 33.5m-44.667-33.5L64.92 110.13M27.252 75.944L60.92 110.13m55.331 19.118l26.281-.171m-8.702-.341l9.044-26.282m-5.12 26.453l12.63-26.965" stroke="#fff" fill="none"/><path stroke-width="2" d="M98.16 72.93l61.61-.17" stroke="#fff" fill="none"/><path d="M98.161 69.005l61.608-.171" stroke="#fff" fill="none"/><path d="M128.88 68.834v8.363" stroke-width="2" stroke="#fff" fill="none"/><path d="M118.64 69.175v3.755m-17.92-3.755v3.755m3.585-3.755v3.755m3.583-3.755v3.755m3.584-3.755v3.755m3.584-3.755v3.755" stroke="#fff" fill="none"/><path d="M3.533 170.496h11.15l-.165-11.061" stroke-width="2" stroke="#fff" fill="none"/><path d="M70.309 25.624l-.062-6.047m.108 98.497l-.063-4.988m-44.074 4.988l-.062-4.988m.062-87.462l-.062-6.047M70.309 72.44l-.062-6.046M26.218 72.44l-.062-6.046" stroke="#fff" fill="none"/></svg>