<svg width="252" height="101" class="main-usliga__icon" xmlns="http://www.w3.org/2000/svg"><path d="M177.804 79.078V23.736h-3.035l-28.696 55.467" stroke-width="null" stroke="#fff" fill="none"/><rect rx="2" height="68.995" width="229.234" y="10.702" x="12.124" stroke-width="1.5" stroke="#fff" fill="none"/><ellipse ry="4.125" rx="4.125" cy="91.571" cx="219.86" stroke="#fff" fill="none"/><ellipse ry="9.249" rx="9.249" cy="91.696" cx="219.735" stroke="#fff" fill="none"/><ellipse ry="9.249" rx="9.249" cy="91.696" cx="34.748" stroke="#fff" fill="none"/><ellipse ry="4.125" rx="4.125" cy="91.571" cx="34.873" stroke="#fff" fill="none"/><ellipse ry="9.249" rx="9.249" cy="91.696" cx="70.245" stroke="#fff" fill="none"/><ellipse ry="4.125" rx="4.125" cy="91.571" cx="70.37" stroke="#fff" fill="none"/><ellipse ry="9.249" rx="9.249" cy="91.696" cx="183.987" stroke="#fff" fill="none"/><ellipse ry="4.125" rx="4.125" cy="91.571" cx="184.112" stroke="#fff" fill="none"/><path d="M13.749 79.947v3l-5.25-.25-.25-3.25H5.5v9.25h3.25v-3h5v1.75h12.5" stroke="#fff" fill="none"/><path stroke-width="null" stroke="#fff" fill="none" d="M0 82.197h5.5v3.5H0zm42.122 3.5h20.874m13.249-1.75h31.497v3.25h2.25v1.75h5.5v-2.25l29.498-.25v-2h32.747m12.809 13.994l22.611-.125m-22.861-13.991l23.986-.125m-18.739 3.872h12.368v4.622h-12.368zm35.978-8.495h9.12v14.741h-9.12zm-2.498 12.868h2.124m9.743-5.997h2.874v-3.872h2.873l-.125 3.997 5.372-.125v3.123l-4.997-.125-.125 4.373-3.123-.125-.125-4.497-2.373-.125"/><path d="M41.01 98.94h23.487" stroke="#fff" fill="none"/><path stroke-width="null" stroke="#fff" fill="none" d="M46.882 88.447H58.75v4.372H46.882zm39.851-4.122c.746.624 2.249 5.621-.5 8.744-2.748 3.123-7.87 2.874-7.87 2.874M166.31 84.7c-1.127 2.498-1.124 5.87 1.125 8.494 2.249 2.624 7.62 1.374 7.62 1.374m7.621-65.773h11.993v9.869h-11.993zM75.991 78.328L47.383 23.986h-6.246L13.028 79.203"/><path d="M42.636 79.203V29.358l-26.36 50.719m62.584-.851V30.732l25.11 49.345m-57.961-.874V29.358l26.36 50.719" stroke-width="null" stroke="#fff" fill="none"/><path d="M75.865 79.952V24.61h3.083l27.774 52.72m18.184 2.247l-.125-49.595m2.911 49.221l-.25-49.596m16.132 49.596V23.61m2.624 55.593V23.61m-39.102 55.593V23.61m2.624 55.593V23.61m.374 6.122h33.23M8.405 21.362h236.608v2.498H8.405zm232.611 56.966l-28.608-54.342h-6.246l-28.108 55.217" stroke-width="null" stroke="#fff" fill="none"/><path d="M207.661 79.203V29.358l-26.36 50.719m29.733-.874V29.358l26.359 50.719m-62.466-.851V30.732l-25.86 49.345m-76.64-8.534l3.61-.062M48.492 26.609h27.67m118.867 5.997h6.476m-6.476 3.054h5.167M54.85 38.59h21.186m-19.569 2.93l19.566.062m-18.005 2.991h17.759m-16.33 3.062l16.574-.062M61.205 50.47l14.829.124m-13.4 3.066l13.458-.126M64.2 56.538l12.086-.063m-10.54 3.126l10.342-.25m-8.798 3.042l8.471.063m-6.889 3.095l7.225-.124m-5.602 3.08l5.542.062M12.59 71.543l4.17-.062m-4.482-44.872h27.67m-27.67 2.873H38.14m-25.55 3.124h23.99M12.59 35.66h22.309M12.59 38.59h21.187M12.59 41.52l19.566.062M12.59 44.573h17.758M12.59 47.635l16.574-.062M12.59 50.47l14.829.124M12.59 53.66l13.458-.126M12.59 56.538l12.086-.063M12.59 59.601l10.341-.25m-10.279 3.042l8.472.063m-8.534 3.095l7.225-.124m-7.225 3.08l5.542.062m128.405 2.974l4.17-.062m-4.482-44.872h27.669m-27.669 2.873h25.861m-25.549 3.124h23.991m-23.991 3.054h22.308m-22.308 2.93h21.186m-21.186 2.93l19.566.062m-19.566 2.991h17.758m-17.758 3.062l16.574-.062m-16.574 2.897l14.829.124m-14.829 3.066l13.457-.126m-13.457 3.004l12.086-.063m-12.086 3.126l10.341-.25M146.6 62.393l8.47.063m-8.533 3.095l7.225-.124m-7.225 3.08l5.542.062m25.311-39.087h5.23M51.795 32.606h23.68M53.416 35.66h22.246m101.728-9.051h27.668m-10.341 2.873h8.409m-152.639.001H75.6m102.101 42.06l4.171-.062m-4.171-32.891h21.187m-21.187 2.93l19.566.062m-19.566 2.991h17.759m-17.759 3.062l16.574-.062m-16.574 2.897l14.83.124m-14.83 3.066l13.458-.126m-13.458 3.004l12.087-.063m-12.087 3.126l10.342-.25m-10.279 3.042l8.471.063m-8.534 3.095l7.225-.124m-7.225 3.08l5.542.062m-5.542-35.963h4.732m-4.732 3.054h4.919m54.606 35.883l4.17-.062m-27.544-44.872h27.669M220.21 38.59h21.186m-19.569 2.93l19.566.062m-18.005 2.991h17.758m-16.33 3.062l16.574-.062m-14.826 2.897l14.83.124m-13.401 3.066l13.458-.126m-11.891 3.004l12.085-.063m-10.539 3.126l10.341-.25m-8.798 3.042l8.471.063m-6.889 3.095l7.225-.124m-5.602 3.08l5.542.062m-24.241-35.963h23.68m-22.059 3.054h22.246m-25.487-6.178h25.113M103.654 71.543l3.61-.062M79.72 26.609h27.668M86.077 38.59h21.187m-19.569 2.93l19.566.062m-18.005 2.991h17.758m-16.33 3.062l16.574-.062M92.432 50.47l14.829.124m-13.4 3.066l13.458-.126m-11.892 3.004l12.086-.063m-10.539 3.126l10.34-.25m-8.797 3.042l8.471.063m-6.889 3.095l7.225-.124m-5.602 3.08l5.542.062M83.023 32.606h23.68M84.644 35.66h22.246m-25.175-6.178h25.113" stroke-width="null" stroke="#fff" fill="none"/><path d="M13.14 10.847L24.61.75h204.192l10.659 10.284" stroke-width="1.5" stroke="#fff" fill="none"/><path d="M235.035 10.847l-7.61-7.043H25.684l-7.058 6.607m7.279-6.358l-.063 6.358m201.652-6.357l-.063 6.357m14.274 67.379h5.173l-.062-64.002c.062 0-.561-1.438-1.31-2.064-.747-.626-1.87-.938-2.866-.938-.998 0-2.494-.188-2.556-.063m1.87 59.992h4.425m-4.425-34.063h4.425m-4.425 5.859h4.425m-4.425 7.106h4.425m-4.425 6.981h4.425m-4.425 7.017h4.425" stroke-width="null" stroke="#fff" fill="none"/></svg>