<svg class="main-usliga__icon" width="140" height="174" xmlns="http://www.w3.org/2000/svg">
  <path id="svg_2" d="m127.29805,66.767494c1,1 6.999969,1.75 7.499969,2.5c0.5,0.749985 4.25,5.999969 4.25,6.999969c0,1 -3.5,39.999878 -3.5,40.999878c0,1 -11.499969,11.749962 -11.749969,11.749962c-0.25,0 -4.999969,-5.499977 -6.749969,-5.999977c-1.75,-0.5 -6.249969,-2 -7.499969,-1.25c-1.25,0.75 -12.999969,6.999977 -13.249939,6.750008c0.249969,0.249969 -14.499969,-2.000023 -15.749969,-0.750023c-1.25,1.249992 -14.999969,11.249962 -15.499969,12.499962c-0.5,1.25 -6.749969,1.25 -9.249969,1.25c-2.5,0 -19.249924,-2.75 -19.499908,-2.999969c0.249969,0.249969 -5.500015,-11.499992 -5.500015,-12.249992c0,-0.75 -6.249969,-4.999985 -6.749969,-5.999985c-0.5,-1 -4.499985,-9.499969 -4.499985,-10.999969c0,-1.499985 -0.25,-6.999969 -0.499985,-7.249954c0.249985,0.249985 -3.75,-3.5 -3.999985,-3.749985c0.249985,0.249985 2.249969,-75.249786 1.999985,-75.499771c0.249985,0.249985 2.249985,-3.750008 2,-3.999992c0.249985,0.249992 -0.000015,-5.499992 0.249985,-6.749992c0.25,-1.249992 18.249939,-11.499962 19.499939,-10.999962c1.25,0.5 18.499939,7.499977 18.249969,7.249985c0.249969,0.249992 16.249908,11.499954 15.999939,11.249969c0.249969,0.249985 3.999969,-0.000015 3.75,-0.25c0.249969,0.249985 31.749878,14.999947 32.249878,15.499947c0.5,0.499985 11.249969,8.499969 11.749969,9.499969c0.5,0.999985 5.999969,16.249939 5.999969,17.249939c0,1 -0.5,4.249985 0.5,5.249985z" stroke-width="2" stroke="#ffffff" fill="none"></path>
  <path id="svg_3" d="m1.048447,146.017273c-0.25,1.5 0.5,7.999969 1.499985,9.749969c1,1.75 7.749985,3.749969 7.5,3.5c0.249985,0.249969 10.749954,-4.5 10.499969,-4.749969c0.249985,0.249969 5.999969,-6.75 5.999969,-7.5c0,-0.75 -2,-4 -4.5,-5.75c-2.499985,-1.75 -8.499969,-4.999969 -9.499969,-4.749969c-0.999985,0.25 -11.249954,7.999969 -11.499954,9.499969z" stroke-width="2" stroke="#ffffff" fill="none"></path>
  <path id="svg_4" d="m23.54837,167.767212c0,0.25 5.499985,4.249969 6.249985,4.499969c0.75,0.25 6.499985,-1.5 6.25,-1.749969c0.249985,0.249969 15.499908,-10.5 15.249939,-10.749969c0.25,0.25 0.25,-6.75 0,-6.75c-0.25,0 -16.249954,-2.25 -18.249954,-1.5c-1.999985,0.75 -10.749969,8 -10.749969,8.5c0,0.499969 1.25,7.499969 1.25,7.749969z" stroke-width="2" stroke="#ffffff" fill="none"></path>
  <path id="svg_5" d="m123.79805,128.517303c3.500122,4.999908 5.5,9.5 6.5,11.249969c0.999969,1.75 8.999969,17.249969 8.75,17c0.249969,0.249969 -6.250031,5.749939 -8,7.249939c-1.75,1.5 -20.999939,8.999969 -21.249908,8.75c0.249969,0.249969 -42.749908,-0.500031 -42.999878,-0.75c0.249969,0.249969 -10.25,-4.5 -10.75,-6c-0.5,-1.5 0.5,-9.999969 2,-11.499969c1.5,-1.5 6.499969,-13.499969 6.25,-13.749939" stroke-width="2" stroke="#ffffff" fill="none"></path>
  <path id="svg_6" d="m23.29837,165.517212l11.749985,-8.749939l14.499969,3.249969" fill-opacity="null" stroke="#ffffff" fill="none"></path>
  <path id="svg_8" d="m57.298264,141.267273l-9.249954,-17.749916l-20.999939,-12.749969l-7.499969,-7.749969" fill-opacity="null" stroke-width="null" stroke="#ffffff" fill="none"></path>
  <path id="svg_9" d="m56.298264,158.767242l16.499969,-13.249969l7.499969,-4.499969l14.499969,0.75l14.249969,-7.999969l18.249939,11.249969l4.749969,0" fill-opacity="null" stroke-width="null" stroke="#ffffff" fill="none"></path>
  <path id="svg_10" d="m48.048294,123.517342c3.999878,-3.750122 19.249939,-10.999969 20.499939,-11.749969c1.25,-0.75 20.249939,-6.999969 19.999969,-7.249954c0.249969,0.249985 20.749908,0.499969 20.499939,0.25c0.249969,0.249969 14.749908,-17.249969 14.499939,-17.499954c0.249969,0.249985 8.499939,1.999985 8.249969,1.75c0.249969,0.249985 7.249969,-7.25 7,-7.499985" fill-opacity="null" stroke-width="null" stroke="#ffffff" fill="none"></path>
  <path id="svg_11" d="m127.79805,144.767273l-17.499939,6.5c0.25,0.249969 5.749969,13.999939 5.249969,14.749939c-0.5,0.75 -6.499969,6.999969 -6.749939,6.75" fill-opacity="null" stroke-width="null" stroke="#ffffff" fill="none"></path>
  <path id="svg_12" d="m27.799057,111.01786l-1.499969,-50.499832c3.249985,-1.5 5.999969,-2.25 10.499969,-1.25c4.5,1 73.249756,4.999985 72.999786,4.75c0.249969,0.249985 14.249908,23.999908 13.999939,23.749924" fill-opacity="null" stroke-width="null" stroke="#ffffff" fill="none"></path>
  <path id="svg_13" d="m42.798309,2.517708l15.999985,14.249969l13.499939,7.999977l40.749878,20.999931l3,10.999969l8.999969,15.999954l9.999969,-2" fill-opacity="null" stroke-width="null" stroke="#ffffff" fill="none"></path>
  <path id="svg_14" d="m16.048401,55.017448l10.749985,9.749969" fill-opacity="null" stroke-width="null" stroke="#ffffff" fill="none"></path>
  <path id="svg_15" d="m16.04808,91.767021l10.75,9.75" fill-opacity="null" stroke-width="null" stroke="#ffffff" fill="none"></path>
  <path id="svg_16" d="m16.048401,86.517448l10.749985,9.749969" fill-opacity="null" stroke-width="null" stroke="#ffffff" fill="none"></path>
  <path id="svg_17" d="m16.048401,81.267448l10.749985,9.749969" fill-opacity="null" stroke-width="null" stroke="#ffffff" fill="none"></path>
  <path id="svg_18" d="m16.048401,76.017448l10.749985,9.749969" fill-opacity="null" stroke-width="null" stroke="#ffffff" fill="none"></path>
  <path id="svg_19" d="m16.048401,70.767448l10.749985,9.749969" fill-opacity="null" stroke-width="null" stroke="#ffffff" fill="none"></path>
  <path id="svg_20" d="m16.048401,65.517448l10.749985,9.749969" fill-opacity="null" stroke-width="null" stroke="#ffffff" fill="none"></path>
  <path id="svg_21" d="m16.048401,60.267448l10.749985,9.749969" fill-opacity="null" stroke-width="null" stroke="#ffffff" fill="none"></path>
  <path id="svg_22" d="m48.048294,60.517525l-9.749954,-13.499939l-14.749954,1.25l0,-5.999985c0.249985,0.249985 7.249969,-7.499985 8.749954,-6.999985c1.5,0.499985 4.749985,2.999985 4.500015,2.75c0.249969,0.249985 7.749954,-7 7.499969,-7.249985c0.249985,0.249985 0.999985,-6.499985 0.75,-6.749977c0.249985,0.249992 13.249939,-7.499985 12.999969,-7.749977" fill-opacity="null" stroke-width="null" stroke="#ffffff" fill="none"></path>
  <path id="svg_23" d="m123.04805,87.517448l1.750031,-15.249939" fill-opacity="null" stroke-width="null" stroke="#ffffff" fill="none"></path>
  <path id="svg_24" d="m108.798111,133.767303l5,-11.499947" fill-opacity="null" stroke-width="null" stroke="#ffffff" fill="none"></path>
  <path id="svg_25" d="m110.548111,151.767242c-0.250031,0 -15.749969,-9.499969 -15.999939,-9.749939" fill-opacity="null" stroke-width="null" stroke="#ffffff" fill="none"></path>
  <path id="svg_26" d="m82.548141,142.017273l1.250031,-13.749939" fill-opacity="null" stroke-width="null" stroke="#ffffff" fill="none"></path>
  <path id="svg_27" d="m93.29808,142.017029l1.25,-13.75" fill-opacity="null" stroke-width="null" stroke="#ffffff" fill="none"></path>
  <path id="svg_28" d="m90.048141,142.017273l1.250031,-13.749939" fill-opacity="null" stroke-width="null" stroke="#ffffff" fill="none"></path>
  <path id="svg_29" d="m86.798141,142.017273l1.250031,-13.749939" fill-opacity="null" stroke-width="null" stroke="#ffffff" fill="none"></path>
  <path id="svg_30" d="m44.548309,24.017647l-6.249969,-8.499969l9.749969,5.999985" fill-opacity="null" stroke-width="null" stroke="#ffffff" fill="none"></path>
  <path id="svg_31" d="m72.298233,24.517639c-0.000031,-0.499992 0.499969,-5.499977 0.25,-5.749969" fill-opacity="null" stroke-width="null" stroke="#ffffff" fill="none"></path>
  <path id="svg_32" d="m114.048111,70.517509l4.75,-9.999939" fill-opacity="null" stroke-width="null" stroke="#ffffff" fill="none"></path>
  <path id="svg_33" d="m108.79808,64.267021l6,-11.998993" fill-opacity="null" stroke-width="null" stroke="#ffffff" fill="none"></path>
  <path id="svg_34" d="m111.298111,67.267509l5.5,-10.499939" fill-opacity="null" stroke-width="null" stroke="#ffffff" fill="none"></path>
  <path id="svg_35" d="m116.54808,56.26754l1.750031,-14.999939" fill-opacity="null" stroke-width="null" stroke="#ffffff" fill="none"></path>
  <path id="svg_36" d="m99.548111,38.517601l1.5,-6.999969" fill-opacity="null" stroke-width="null" stroke="#ffffff" fill="none"></path>
  <path id="svg_37" d="m110.29808,44.018028l1.5,-7" fill-opacity="null" stroke-width="null" stroke="#ffffff" fill="none"></path>
  <path id="svg_38" d="m107.048111,41.767601l1.5,-6.999969" fill-opacity="null" stroke-width="null" stroke="#ffffff" fill="none"></path>
  <path id="svg_39" d="m103.548111,40.267601l1.5,-6.999969" fill-opacity="null" stroke-width="null" stroke="#ffffff" fill="none"></path>
</svg>
