<svg width="251.99999999999997" height="101" class="main-usliga__icon" xmlns="http://www.w3.org/2000/svg">
                <path id="svg_49" d="m177.803864,79.077942l0,-55.34201l-3.035004,0l-28.695984,55.46701" fill-opacity="null" stroke-width="null" stroke="#ffffff" fill="none"></path>
                <rect rx="2" id="svg_2" height="68.995147" width="229.233876" y="10.701909" x="12.12382" stroke-width="1.5" stroke="#ffffff" fill="none"></rect>
                <ellipse ry="4.124707" rx="4.124707" id="svg_3" cy="91.571215" cx="219.859547" stroke="#ffffff" fill="none"></ellipse>
                <ellipse ry="9.249349" rx="9.249349" id="svg_4" cy="91.696212" cx="219.734557" stroke="#ffffff" fill="none"></ellipse>
                <ellipse ry="9.249349" rx="9.249349" id="svg_6" cy="91.696212" cx="34.74756" stroke="#ffffff" fill="none"></ellipse>
                <ellipse ry="4.124707" rx="4.124707" id="svg_5" cy="91.571215" cx="34.87255" stroke="#ffffff" fill="none"></ellipse>
                <ellipse ry="9.249349" rx="9.249349" id="svg_8" cy="91.696212" cx="70.245065" stroke="#ffffff" fill="none"></ellipse>
                <ellipse ry="4.124707" rx="4.124707" id="svg_7" cy="91.571215" cx="70.370055" stroke="#ffffff" fill="none"></ellipse>
                <ellipse ry="9.249349" rx="9.249349" id="svg_25" cy="91.696212" cx="183.98707" stroke="#ffffff" fill="none"></ellipse>
                <ellipse ry="4.124707" rx="4.124707" id="svg_9" cy="91.571215" cx="184.11206" stroke="#ffffff" fill="none"></ellipse>
                <path id="svg_11" d="m13.749039,79.947037l0,2.999786l-5.249634,-0.249969l-0.249985,-3.249771l-2.749802,0l0,9.249344l3.249771,0l0,-2.999786l4.999649,0l0,1.749878l12.499115,0" fill-opacity="null" stroke="#ffffff" fill="none"></path>
                <rect id="svg_12" height="3.499754" width="5.499613" y="82.196881" x="0.000004" fill-opacity="null" stroke-width="null" stroke="#ffffff" fill="none"></rect>
                <path id="svg_13" d="m42.121704,85.69664l20.874527,0" fill-opacity="null" stroke-width="null" stroke="#ffffff" fill="none"></path>
                <path id="svg_14" d="m76.244644,83.946762l31.497787,0l0,3.249771l2.249847,0l0,1.749878l5.499603,0l0,-2.249847l29.497925,-0.249985l0,-1.999847l32.747681,0" fill-opacity="null" stroke-width="null" stroke="#ffffff" fill="none"></path>
                <path id="svg_16" d="m190.54599,98.441055l22.611389,-0.124924" fill-opacity="null" stroke-width="null" stroke="#ffffff" fill="none"></path>
                <path id="svg_17" d="m190.295868,84.324936l23.985992,-0.125" fill-opacity="null" stroke-width="null" stroke="#ffffff" fill="none"></path>
                <rect id="svg_18" height="4.622222" width="12.367568" y="88.072247" x="195.542955" fill-opacity="null" stroke-width="null" stroke="#ffffff" fill="none"></rect>
                <rect id="svg_19" height="14.741141" width="9.11952" y="79.577352" x="231.521334" fill-opacity="null" stroke-width="null" stroke="#ffffff" fill="none"></rect>
                <path id="svg_20" d="m229.022797,92.444626l2.123718,-0.000015" fill-opacity="null" stroke-width="null" stroke="#ffffff" fill="none"></path>
                <path id="svg_22" d="m240.890717,86.448227l2.87326,-0.000015l0,-3.872665l2.87326,0l-0.124908,3.997589l5.371765,-0.124924l0,3.123123l-4.997009,-0.124924l-0.124908,4.372375l-3.123138,-0.124924l-0.124908,-4.497299l-2.373596,-0.124924" fill-opacity="null"
                  stroke-width="null" stroke="#ffffff" fill="none"></path>
                <path id="svg_26" d="m166.185608,87.322708" opacity="0.5" fill-opacity="null" stroke="#ffffff" fill="none"></path>
                <path id="svg_27" d="m41.010818,98.94072l23.485886,-0.000015" fill-opacity="null" stroke="#ffffff" fill="none"></path>
                <rect id="svg_28" height="4.372372" width="11.867868" y="88.447032" x="46.882295" fill-opacity="null" stroke-width="null" stroke="#ffffff" fill="none"></rect>
                <path id="svg_29" d="m86.733353,84.324509c0.745804,0.624649 2.248611,5.621628 -0.49971,8.744736c-2.748322,3.123108 -7.87027,2.873276 -7.87027,2.87326" fill-opacity="null" stroke-width="null" stroke="#ffffff" fill="none"></path>
                <path id="svg_30" d="m166.310577,84.69928c-1.127808,2.498505 -1.124481,5.87149 1.124329,8.494888c2.24881,2.623398 7.620392,1.374191 7.620361,1.374176" fill-opacity="null" stroke-width="null" stroke="#ffffff" fill="none"></path>
                <rect id="svg_32" height="9.869069" width="11.992793" y="28.794713" x="182.675697" fill-opacity="null" stroke-width="null" stroke="#ffffff" fill="none"></rect>
                <path id="svg_33" d="m75.991333,78.328094l-28.608246,-54.342331l-6.246323,0l-28.108444,55.216812" fill-opacity="null" stroke-width="null" stroke="#ffffff" fill="none"></path>
                <path id="svg_36" d="m42.636261,79.202576l0.000031,-49.845047l-26.359482,50.719513" fill-opacity="null" stroke-width="null" stroke="#ffffff" fill="none"></path>
                <path id="svg_34" d="m78.860077,79.226273l-0.000031,-48.494568l25.109924,49.345337" fill-opacity="null" stroke-width="null" stroke="#ffffff" fill="none"></path>
                <path id="svg_35" d="m46.008942,79.202576l-0.000031,-49.845047l26.359497,50.719513" fill-opacity="null" stroke-width="null" stroke="#ffffff" fill="none"></path>
                <path id="svg_37" d="m75.865463,79.952423l0,-55.34201l3.082779,0l27.77356,52.718689" fill-opacity="null" stroke-width="null" stroke="#ffffff" fill="none"></path>
                <path id="svg_38" d="m124.905609,79.577347l-0.124969,-49.5952" fill-opacity="null" stroke-width="null" stroke="#ffffff" fill="none"></path>
                <path id="svg_39" d="m127.691956,79.202576l-0.249878,-49.5952" fill-opacity="null" stroke-width="null" stroke="#ffffff" fill="none"></path>
                <path id="svg_40" d="m143.574219,79.202576l-0.000031,-55.591599" fill-opacity="null" stroke-width="null" stroke="#ffffff" fill="none"></path>
                <path id="svg_41" d="m146.197632,79.202576l-0.000031,-55.591599" fill-opacity="null" stroke-width="null" stroke="#ffffff" fill="none"></path>
                <path id="svg_42" d="m107.096466,79.202576l-0.000031,-55.591599" fill-opacity="null" stroke-width="null" stroke="#ffffff" fill="none"></path>
                <path id="svg_43" d="m109.719879,79.202576l-0.000031,-55.591599" fill-opacity="null" stroke-width="null" stroke="#ffffff" fill="none"></path>
                <path id="svg_44" d="m110.094299,29.732315l33.230042,-0.000015" fill-opacity="null" stroke-width="null" stroke="#ffffff" fill="none"></path>
                <rect id="svg_45" height="2.498499" width="236.607812" y="21.362341" x="8.405425" fill-opacity="null" stroke-width="null" stroke="#ffffff" fill="none"></rect>
                <path id="svg_46" d="m241.015869,78.327942l-28.608002,-54.34201l-6.246002,0l-28.108002,55.21701" fill-opacity="null" stroke-width="null" stroke="#ffffff" fill="none"></path>
                <path id="svg_47" d="m207.661041,79.202576l0.000031,-49.845047l-26.359161,50.719513" fill-opacity="null" stroke-width="null" stroke="#ffffff" fill="none"></path>
                <path id="svg_48" d="m211.033691,79.202576l-0.000031,-49.845047l26.359161,50.719513" fill-opacity="null" stroke-width="null" stroke="#ffffff" fill="none"></path>
                <path id="svg_50" d="m174.92688,79.226273l0.000031,-48.494568l-25.859467,49.345337" fill-opacity="null" stroke-width="null" stroke="#ffffff" fill="none"></path>
                <path id="svg_51" d="m72.427155,71.54335l3.609756,-0.062347" fill-opacity="null" stroke-width="null" stroke="#ffffff" fill="none"></path>
                <path transform="rotate(0.000787672, 62.3267, 26.609)" id="svg_52" d="m48.491928,26.608948l27.669327,0" fill-opacity="null" stroke-width="null" stroke="#ffffff" fill="none"></path>
                <path id="svg_54" d="m195.0289,32.60556l6.47641,0" fill-opacity="null" stroke-width="null" stroke="#ffffff" fill="none"></path>
                <path id="svg_55" d="m195.0289,35.65976l5.16748,0" fill-opacity="null" stroke-width="null" stroke="#ffffff" fill="none"></path>
                <path id="svg_56" d="m54.849487,38.58934l21.186874,-0.000015" fill-opacity="null" stroke-width="null" stroke="#ffffff" fill="none"></path>
                <path id="svg_57" d="m56.467133,41.519699l19.566269,0.062317" fill-opacity="null" stroke-width="null" stroke="#ffffff" fill="none"></path>
                <path id="svg_58" d="m58.028,44.573074l17.758728,-0.000015" fill-opacity="null" stroke-width="null" stroke="#ffffff" fill="none"></path>
                <path id="svg_59" d="m59.456589,47.635345l16.574432,-0.062347" fill-opacity="null" stroke-width="null" stroke="#ffffff" fill="none"></path>
                <path id="svg_60" d="m61.204559,50.469604l14.829178,0.124649" fill-opacity="null" stroke-width="null" stroke="#ffffff" fill="none"></path>
                <path id="svg_61" d="m62.633606,53.659119l13.457947,-0.12468" fill-opacity="null" stroke-width="null" stroke="#ffffff" fill="none"></path>
                <path id="svg_62" d="m64.199402,56.537796l12.0867,-0.062347" fill-opacity="null" stroke-width="null" stroke="#ffffff" fill="none"></path>
                <path id="svg_63" d="m65.746231,59.601181l10.341446,-0.249329" fill-opacity="null" stroke-width="null" stroke="#ffffff" fill="none"></path>
                <path id="svg_64" d="m67.289444,62.393478l8.471527,0.062302" fill-opacity="null" stroke-width="null" stroke="#ffffff" fill="none"></path>
                <path id="svg_65" d="m68.871643,65.551331l7.224945,-0.12468" fill-opacity="null" stroke-width="null" stroke="#ffffff" fill="none"></path>
                <path id="svg_66" d="m70.494888,68.507156l5.542023,0.062302" fill-opacity="null" stroke-width="null" stroke="#ffffff" fill="none"></path>
                <path id="svg_67" d="m12.589752,71.543335l4.170746,-0.062347" fill-opacity="null" stroke-width="null" stroke="#ffffff" fill="none"></path>
                <path transform="rotate(0.000787672, 26.1126, 26.609)" id="svg_68" d="m12.277878,26.608932l27.669281,0" fill-opacity="null" stroke-width="null" stroke="#ffffff" fill="none"></path>
                <path id="svg_69" d="m12.278091,29.482437l25.861572,-0.000015" fill-opacity="null" stroke-width="null" stroke="#ffffff" fill="none"></path>
                <path id="svg_70" d="m12.589752,32.605576l23.991684,-0.000015" fill-opacity="null" stroke-width="null" stroke="#ffffff" fill="none"></path>
                <path id="svg_71" d="m12.589752,35.659775l22.308777,-0.000015" fill-opacity="null" stroke-width="null" stroke="#ffffff" fill="none"></path>
                <path id="svg_72" d="m12.589752,38.589325l21.186844,-0.000015" fill-opacity="null" stroke-width="null" stroke="#ffffff" fill="none"></path>
                <path id="svg_73" d="m12.589752,41.519684l19.566254,0.062317" fill-opacity="null" stroke-width="null" stroke="#ffffff" fill="none"></path>
                <path id="svg_74" d="m12.589752,44.573059l17.758682,-0.000015" fill-opacity="null" stroke-width="null" stroke="#ffffff" fill="none"></path>
                <path id="svg_75" d="m12.589752,47.63533l16.574417,-0.062347" fill-opacity="null" stroke-width="null" stroke="#ffffff" fill="none"></path>
                <path id="svg_76" d="m12.589752,50.469589l14.829178,0.124649" fill-opacity="null" stroke-width="null" stroke="#ffffff" fill="none"></path>
                <path id="svg_77" d="m12.589752,53.659103l13.457916,-0.12468" fill-opacity="null" stroke-width="null" stroke="#ffffff" fill="none"></path>
                <path id="svg_78" d="m12.589752,56.537781l12.08667,-0.062347" fill-opacity="null" stroke-width="null" stroke="#ffffff" fill="none"></path>
                <path id="svg_79" d="m12.589752,59.601166l10.341431,-0.249329" fill-opacity="null" stroke-width="null" stroke="#ffffff" fill="none"></path>
                <path id="svg_80" d="m12.652084,62.393463l8.471527,0.062302" fill-opacity="null" stroke-width="null" stroke="#ffffff" fill="none"></path>
                <path id="svg_81" d="m12.589752,65.551315l7.22493,-0.12468" fill-opacity="null" stroke-width="null" stroke="#ffffff" fill="none"></path>
                <path id="svg_82" d="m12.589752,68.507141l5.542023,0.062302" fill-opacity="null" stroke-width="null" stroke="#ffffff" fill="none"></path>
                <path id="svg_83" d="m146.536835,71.543335l4.170654,-0.062347" fill-opacity="null" stroke-width="null" stroke="#ffffff" fill="none"></path>
                <path transform="rotate(0.000787672, 160.059, 26.609)" id="svg_84" d="m146.224976,26.608932l27.66861,0" fill-opacity="null" stroke-width="null" stroke="#ffffff" fill="none"></path>
                <path id="svg_85" d="m146.225189,29.482437l25.860931,-0.000015" fill-opacity="null" stroke-width="null" stroke="#ffffff" fill="none"></path>
                <path id="svg_86" d="m146.536835,32.605576l23.991119,-0.000015" fill-opacity="null" stroke-width="null" stroke="#ffffff" fill="none"></path>
                <path id="svg_87" d="m146.536835,35.659775l22.308228,-0.000015" fill-opacity="null" stroke-width="null" stroke="#ffffff" fill="none"></path>
                <path id="svg_88" d="m146.536835,38.589325l21.18634,-0.000015" fill-opacity="null" stroke-width="null" stroke="#ffffff" fill="none"></path>
                <path id="svg_89" d="m146.536835,41.519684l19.565796,0.062317" fill-opacity="null" stroke-width="null" stroke="#ffffff" fill="none"></path>
                <path id="svg_90" d="m146.536835,44.573059l17.75827,-0.000015" fill-opacity="null" stroke-width="null" stroke="#ffffff" fill="none"></path>
                <path id="svg_91" d="m146.536835,47.63533l16.574036,-0.062347" fill-opacity="null" stroke-width="null" stroke="#ffffff" fill="none"></path>
                <path id="svg_92" d="m146.536835,50.469589l14.828827,0.124649" fill-opacity="null" stroke-width="null" stroke="#ffffff" fill="none"></path>
                <path id="svg_93" d="m146.536835,53.659103l13.457611,-0.12468" fill-opacity="null" stroke-width="null" stroke="#ffffff" fill="none"></path>
                <path id="svg_94" d="m146.536835,56.537781l12.086395,-0.062347" fill-opacity="null" stroke-width="null" stroke="#ffffff" fill="none"></path>
                <path id="svg_95" d="m146.536835,59.601166l10.341187,-0.249329" fill-opacity="null" stroke-width="null" stroke="#ffffff" fill="none"></path>
                <path id="svg_96" d="m146.599182,62.393463l8.471313,0.062302" fill-opacity="null" stroke-width="null" stroke="#ffffff" fill="none"></path>
                <path id="svg_97" d="m146.536835,65.551315l7.224762,-0.12468" fill-opacity="null" stroke-width="null" stroke="#ffffff" fill="none"></path>
                <path id="svg_98" d="m146.536835,68.507141l5.541901,0.062302" fill-opacity="null" stroke-width="null" stroke="#ffffff" fill="none"></path>
                <path id="svg_99" d="m177.38974,29.482437l5.229706,-0.000015" fill-opacity="null" stroke-width="null" stroke="#ffffff" fill="none"></path>
                <path id="svg_100" d="m51.795364,32.605576l23.680115,0" fill-opacity="null" stroke-width="null" stroke="#ffffff" fill="none"></path>
                <path id="svg_101" d="m53.416031,35.659775l22.24646,0" fill-opacity="null" stroke-width="null" stroke="#ffffff" fill="none"></path>
                <path transform="rotate(0.000787672, 191.224, 26.609)" id="svg_102" d="m177.389526,26.608932l27.66861,0" fill-opacity="null" stroke-width="null" stroke="#ffffff" fill="none"></path>
                <path id="svg_103" d="m194.717255,29.482452l8.408539,-0.000031" fill-opacity="null" stroke-width="null" stroke="#ffffff" fill="none"></path>
                <path id="svg_104" d="m50.486893,29.482513l25.113556,-0.000092" fill-opacity="null" stroke-width="null" stroke="#ffffff" fill="none"></path>
                <path id="svg_105" d="m177.701385,71.543335l4.170654,-0.062347" fill-opacity="null" stroke-width="null" stroke="#ffffff" fill="none"></path>
                <path id="svg_106" d="m177.701385,38.589325l21.18634,-0.000015" fill-opacity="null" stroke-width="null" stroke="#ffffff" fill="none"></path>
                <path id="svg_107" d="m177.701385,41.519684l19.565796,0.062317" fill-opacity="null" stroke-width="null" stroke="#ffffff" fill="none"></path>
                <path id="svg_108" d="m177.701385,44.573059l17.75827,-0.000015" fill-opacity="null" stroke-width="null" stroke="#ffffff" fill="none"></path>
                <path id="svg_109" d="m177.701385,47.63533l16.574036,-0.062347" fill-opacity="null" stroke-width="null" stroke="#ffffff" fill="none"></path>
                <path id="svg_110" d="m177.701385,50.469589l14.828827,0.124649" fill-opacity="null" stroke-width="null" stroke="#ffffff" fill="none"></path>
                <path id="svg_111" d="m177.701385,53.659103l13.457611,-0.12468" fill-opacity="null" stroke-width="null" stroke="#ffffff" fill="none"></path>
                <path id="svg_112" d="m177.701385,56.537781l12.086395,-0.062347" fill-opacity="null" stroke-width="null" stroke="#ffffff" fill="none"></path>
                <path id="svg_113" d="m177.701385,59.601166l10.341187,-0.249329" fill-opacity="null" stroke-width="null" stroke="#ffffff" fill="none"></path>
                <path id="svg_114" d="m177.763733,62.393463l8.471313,0.062302" fill-opacity="null" stroke-width="null" stroke="#ffffff" fill="none"></path>
                <path id="svg_115" d="m177.701385,65.551315l7.224762,-0.12468" fill-opacity="null" stroke-width="null" stroke="#ffffff" fill="none"></path>
                <path id="svg_116" d="m177.701385,68.507141l5.541901,0.062302" fill-opacity="null" stroke-width="null" stroke="#ffffff" fill="none"></path>
                <path id="svg_117" d="m177.701385,32.60556l4.731171,0" fill-opacity="null" stroke-width="null" stroke="#ffffff" fill="none"></path>
                <path id="svg_118" d="m177.701385,35.65976l4.918152,0" fill-opacity="null" stroke-width="null" stroke="#ffffff" fill="none"></path>
                <path id="svg_119" d="m237.225616,71.543335l4.170654,-0.062347" fill-opacity="null" stroke-width="null" stroke="#ffffff" fill="none"></path>
                <path transform="rotate(0.000787672, 227.687, 26.609)" id="svg_120" d="m213.85199,26.608932l27.66861,0" fill-opacity="null" stroke-width="null" stroke="#ffffff" fill="none"></path>
                <path id="svg_121" d="m220.209381,38.589325l21.18634,-0.000015" fill-opacity="null" stroke-width="null" stroke="#ffffff" fill="none"></path>
                <path id="svg_122" d="m221.826965,41.519684l19.565796,0.062317" fill-opacity="null" stroke-width="null" stroke="#ffffff" fill="none"></path>
                <path id="svg_123" d="m223.387787,44.573059l17.758301,-0.000015" fill-opacity="null" stroke-width="null" stroke="#ffffff" fill="none"></path>
                <path id="svg_124" d="m224.816345,47.63533l16.574036,-0.062347" fill-opacity="null" stroke-width="null" stroke="#ffffff" fill="none"></path>
                <path id="svg_125" d="m226.56427,50.469589l14.828827,0.124649" fill-opacity="null" stroke-width="null" stroke="#ffffff" fill="none"></path>
                <path id="svg_126" d="m227.993286,53.659103l13.457611,-0.12468" fill-opacity="null" stroke-width="null" stroke="#ffffff" fill="none"></path>
                <path id="svg_127" d="m229.559052,56.537781l12.086395,-0.062347" fill-opacity="null" stroke-width="null" stroke="#ffffff" fill="none"></path>
                <path id="svg_128" d="m231.105835,59.601166l10.341187,-0.249329" fill-opacity="null" stroke-width="null" stroke="#ffffff" fill="none"></path>
                <path id="svg_129" d="m232.649017,62.393463l8.471313,0.062302" fill-opacity="null" stroke-width="null" stroke="#ffffff" fill="none"></path>
                <path id="svg_130" d="m234.231171,65.551315l7.224762,-0.12468" fill-opacity="null" stroke-width="null" stroke="#ffffff" fill="none"></path>
                <path id="svg_131" d="m235.85437,68.507141l5.541901,0.062302" fill-opacity="null" stroke-width="null" stroke="#ffffff" fill="none"></path>
                <path id="svg_132" d="m217.155334,32.60556l23.679504,0" fill-opacity="null" stroke-width="null" stroke="#ffffff" fill="none"></path>
                <path id="svg_133" d="m218.77597,35.65976l22.24588,0" fill-opacity="null" stroke-width="null" stroke="#ffffff" fill="none"></path>
                <path id="svg_134" d="m215.535248,29.482498l25.112976,-0.000092" fill-opacity="null" stroke-width="null" stroke="#ffffff" fill="none"></path>
                <path id="svg_135" d="m103.654388,71.543335l3.60968,-0.062347" fill-opacity="null" stroke-width="null" stroke="#ffffff" fill="none"></path>
                <path transform="rotate(0.000787672, 93.5541, 26.609)" id="svg_136" d="m79.719574,26.608932l27.668823,0" fill-opacity="null" stroke-width="null" stroke="#ffffff" fill="none"></path>
                <path id="svg_137" d="m86.077133,38.589325l21.186386,-0.000015" fill-opacity="null" stroke-width="null" stroke="#ffffff" fill="none"></path>
                <path id="svg_138" d="m87.694763,41.519684l19.565796,0.062317" fill-opacity="null" stroke-width="null" stroke="#ffffff" fill="none"></path>
                <path id="svg_139" d="m89.255585,44.573059l17.758301,-0.000015" fill-opacity="null" stroke-width="null" stroke="#ffffff" fill="none"></path>
                <path id="svg_140" d="m90.684143,47.63533l16.574036,-0.062347" fill-opacity="null" stroke-width="null" stroke="#ffffff" fill="none"></path>
                <path id="svg_141" d="m92.432068,50.469589l14.828827,0.124649" fill-opacity="null" stroke-width="null" stroke="#ffffff" fill="none"></path>
                <path id="svg_142" d="m93.861084,53.659103l13.457611,-0.12468" fill-opacity="null" stroke-width="null" stroke="#ffffff" fill="none"></path>
                <path id="svg_143" d="m95.426849,56.537781l12.086395,-0.062347" fill-opacity="null" stroke-width="null" stroke="#ffffff" fill="none"></path>
                <path id="svg_144" d="m96.973633,59.601166l10.341187,-0.249329" fill-opacity="null" stroke-width="null" stroke="#ffffff" fill="none"></path>
                <path id="svg_145" d="m98.516815,62.393463l8.471313,0.062302" fill-opacity="null" stroke-width="null" stroke="#ffffff" fill="none"></path>
                <path id="svg_146" d="m100.098969,65.551315l7.224762,-0.12468" fill-opacity="null" stroke-width="null" stroke="#ffffff" fill="none"></path>
                <path id="svg_147" d="m101.722168,68.507141l5.541901,0.062302" fill-opacity="null" stroke-width="null" stroke="#ffffff" fill="none"></path>
                <path id="svg_148" d="m83.02301,32.60556l23.679626,0" fill-opacity="null" stroke-width="null" stroke="#ffffff" fill="none"></path>
                <path id="svg_149" d="m84.643677,35.65976l22.245972,0" fill-opacity="null" stroke-width="null" stroke="#ffffff" fill="none"></path>
                <path id="svg_150" d="m81.714539,29.482498l25.113068,-0.000092" fill-opacity="null" stroke-width="null" stroke="#ffffff" fill="none"></path>
                <path id="svg_151" d="m13.140686,10.847458l11.468735,-10.097458l204.192947,0l10.658417,10.284439" fill-opacity="null" stroke-width="1.5" stroke="#ffffff" fill="none"></path>
                <path id="svg_152" d="m235.03537,10.847458l-7.610352,-7.043289l-201.741089,0l-7.058197,6.606979" fill-opacity="null" stroke-width="null" stroke="#ffffff" fill="none"></path>
                <path id="svg_153" d="m25.904602,4.053497l-0.062286,6.357651" fill-opacity="null" stroke-width="null" stroke="#ffffff" fill="none"></path>
                <path id="svg_154" d="m227.493866,4.05394l-0.062988,6.356995" fill-opacity="null" stroke-width="null" stroke="#ffffff" fill="none"></path>
                <path id="svg_155" d="m241.704651,77.789841l5.173401,-0.000015l-0.062317,-64.001328c0.062317,0.000015 -0.560974,-1.438934 -1.309021,-2.064545c-0.748047,-0.625626 -1.869812,-0.938446 -2.867035,-0.938446c-0.997223,0 -2.493256,-0.187683 -2.555573,-0.062561"
                  fill-opacity="null" stroke-width="null" stroke="#ffffff" fill="none"></path>
                <path id="svg_156" d="m241.953979,70.714996l4.425446,0" fill-opacity="null" stroke-width="null" stroke="#ffffff" fill="none"></path>
                <path id="svg_157" d="m241.953979,36.652054l4.425446,0" fill-opacity="null" stroke-width="null" stroke="#ffffff" fill="none"></path>
                <path id="svg_158" d="m241.953979,42.511139l4.425446,0" fill-opacity="null" stroke-width="null" stroke="#ffffff" fill="none"></path>
                <path id="svg_159" d="m241.953979,49.616821l4.425446,0" fill-opacity="null" stroke-width="null" stroke="#ffffff" fill="none"></path>
                <path id="svg_160" d="m241.953979,56.597855l4.425446,0" fill-opacity="null" stroke-width="null" stroke="#ffffff" fill="none"></path>
                <path id="svg_161" d="m241.953979,63.61528l4.425446,0" fill-opacity="null" stroke-width="null" stroke="#ffffff" fill="none"></path>
              </svg>