<svg class="main-usliga__icon" xmlns="http://www.w3.org/2000/svg" width="237" height="155">
                <path id="svg_2" d="m38.249985,76l-33.999985,0c0.249069,0 -2,-0.262466 -2,2.25c0,2.512466 -0.25,3.5 3,4.25c3.25,0.75 7.5,1.5 7.25,1.5c0.249985,0 1.999985,5.25 1.499985,8c-0.499985,2.749985 -3.499985,7.499985 -3.749985,7.499985c0.25,0 -7,-2 -7.25,-2c0.25,0.000015 -2,0.250015 -2,2.000015c0,1.749985 0,30.25412 0,30.249985c0,0.004135 1,5.5 4,7c3,1.5 15.75,4.5 15.5,4.5c0.249985,0 -3.833359,-5.000031 -3.500015,-11.5c0.333344,-6.499969 4.416641,-12.916656 8.916641,-15.666656c4.5,-2.75 8.583359,-4.333344 13.833359,-4.083344c5.25,0.25 9.166687,1.500015 12.5,4.25c3.333313,2.749985 6.5,6.75 7.75,10.25c1.25,3.5 2,7.75 2,9.75c0,2 -1,4 -1.25,4c0.25,0 53.25058,0 53.25,-0.25c0.00058,0.25 0,-9 0.75,-11.75c0.75,-2.75 1.75,-8.25 5.75,-12.5c4,-4.25 10,-7.5 15.5,-8.25c5.5,-0.75 13,0 12.75,0c0.25,0 0.25,-6.5 0,-6.75c0,0.245193 -7.75,-6.749985 -11.5,-11.499985c-2,-2.75 -7,-13.25 -7.5,-13.75c0.25,0 -11.25,-31.75 -14.25,-39c-1.5,-5.25 -8.75,-22.75 -11,-24.5c-2.25,-1.75 -7.5,-8.5 -12,-8.75c-4.5,-0.25 -33.500931,0 -33.75,-0.25c0.249069,0.25 -7.75,0.75 -11.25,3.25c-3.5,2.5 -8.75,8.75 -9,12.5c-0.25,3.75 -0.25,52.752167 -0.5,59.5"
                  stroke-width="2" stroke="#ffffff" fill="none"></path>
                <path id="svg_3" d="m122.749985,73.25l-9.5,0l-6,3.5c1.75,1.75 7.75,6.75 8.5,8c0.75,1.25 3.75,6.499985 3.5,6.499985c0.25,0 -5.75,9.75 -6,9.75c0.25,0 -20.251526,0 -20.5,-0.25c0.248444,0.25 -1.75,-11.999985 -3.25,-14.999985c-1.5,-3 -6.25,-9 -8.25,-9.25c-2,-0.25 -37.999161,0 -37.75,0c0.249161,0 0.25,-57.502182 -0.25,-57.75c0.25,0.245117 1.75,-5.5 3.75,-7.75c2,-2.25 7.5,-4.5 8.25,-4.5c0.75,0 34.764374,0 34.75,-0.25c0.014374,0.25 8,4 10.5,9c2.5,5 16,34.002167 22.25,58z"
                  fill-opacity="null" stroke-width="2" stroke="#ffffff" fill="none"></path>
                <path id="svg_4" d="m110.499985,79.75l11.5,-1l2.5,12.749985l-4.75,6.5c0.25,0 -3.25,9 -4.25,12.25c-1,3.25 -2.75,10.75 -3,9.75" fill-opacity="null" stroke="#ffffff" fill="none"></path>
                <path id="svg_5" d="m14.249985,104.499985l98.75,-0.25l-2.75,13l-19.25,-0.25" fill-opacity="null" stroke="#ffffff" fill="none"></path>
                <path id="svg_6" d="m90.749985,104.499985l-0.25,12.5c0.25,0 -0.5,2 1,2.75c1.5,0.75 3.25,1 3,1c0.25,0 21.751465,0 21.75,-0.25" fill-opacity="null" stroke="#ffffff" fill="none"></path>
                <path id="svg_7" d="m61.499985,129.749985l52.75,-0.25" fill-opacity="null" stroke="#ffffff" fill="none"></path>
                <path id="svg_8" d="m25.274017,75.75l12.5,6.5l5.75,0l11.749985,16.499985l-0.25,5.75" fill-opacity="null" stroke="#ffffff" fill="none"></path>
                <path id="svg_9" d="m117.499985,73l-7.25,-14.5l-8,0l-0.25,2l-2.5,0l-1.75,-3.75l-3,1l-3,-3.5l-3.25,3l3.25,3.75c0.25,0 -1.5,4 -1.5,3.75c0,-0.25 4.75,6.75 4.5,6.75c0.25,0 -2.25,2.5 -2.5,2.5c0.25,0 7.75,12.75 7.5,12.75c0.25,0 -8.25,4.999985 -8.5,4.999985"
                  fill-opacity="null" stroke="#ffffff" fill="none"></path>
                <path id="svg_10" d="m94.499985,72.25l7.5,0l5.5,14.75l9,0" fill-opacity="null" stroke-width="null" stroke="#ffffff" fill="none"></path>
                <path id="svg_11" d="m165.249985,129.499985l0,-102.249985l-9.25,0l0,6.25" fill-opacity="null" stroke-width="null" stroke="#ffffff" fill="none"></path>
                <path id="svg_12" d="m37.749985,82.5l-0.25,21.999985" fill-opacity="null" stroke-width="null" stroke="#ffffff" fill="none"></path>
                <path id="svg_13" d="m47.499985,87.249985l-10,0.25" fill-opacity="null" stroke="#ffffff" fill="none"></path>
                <path id="svg_14" d="m55.000015,99.250015l-17.5,0.5" fill-opacity="null" stroke-width="null" stroke="#ffffff" fill="none"></path>
                <path id="svg_15" d="m52.999985,95.499985l-15.5,0.5" fill-opacity="null" stroke-width="null" stroke="#ffffff" fill="none"></path>
                <path id="svg_16" d="m50.249985,91.249985l-12.75,0.5" fill-opacity="null" stroke-width="null" stroke="#ffffff" fill="none"></path>
                <path id="svg_17" d="m149.249985,98.999985c0.25,-1.75 4,-3.749985 5.75,-4.499985c1.75,-0.750015 5.25,-1.500015 5,-1.500015c0.25,0 0.25,15.252045 0,15.25c0,0.008194 -4,-0.25 -6,-1.25c-2,-1 -5,-2.75 -4.75,-4.25c0.25,-1.5 -0.25,-2 0,-3.75z" fill-opacity="null"
                  stroke="#ffffff" fill="none"></path>
                <path id="svg_18" d="m165.499985,71.25l2.25,0l0,58.249985" fill-opacity="null" stroke-width="null" stroke="#ffffff" fill="none"></path>
                <path id="svg_19" d="m165.749985,133.999985l69.249969,-2.25l-0.25,-2.75l-67.249969,0.25" fill-opacity="null" stroke-width="null" stroke="#ffffff" fill="none"></path>
                <path id="svg_20" d="m167.749985,122.749985c0.5,0 61.499969,-2.25 61.249969,-2.25c0.25,0 0.25,-2.26384 -0.25,-2.25c0.25,0 -61.249969,-0.25 -61.499969,-0.25" fill-opacity="null" stroke-width="null" stroke="#ffffff" fill="none"></path>
                <path id="svg_21" d="m156.499985,38.75l0,54.499985" fill-opacity="null" stroke-width="null" stroke="#ffffff" fill="none"></path>
                <path id="svg_22" d="m156.999985,114.749985c0,-0.5 0,-7.004456 0,-7.25" fill-opacity="null" stroke-width="null" stroke="#ffffff" fill="none"></path>
                <rect id="svg_23" height="22.499994" width="7.75" y="38.750013" x="146.749984" fill-opacity="null" stroke-width="null" stroke="#ffffff" fill="none"></rect>
                <rect id="svg_24" height="5.249999" width="14.249998" y="33.5" x="146.749978" fill-opacity="null" stroke-width="null" stroke="#ffffff" fill="none"></rect>
                <path id="svg_25" d="m154.749985,94.249985l0,-32.499985" fill-opacity="null" stroke-width="null" stroke="#ffffff" fill="none"></path>
                <path id="svg_26" d="m150.749985,97.749985l0,-36.499985" fill-opacity="null" stroke-width="null" stroke="#ffffff" fill="none"></path>
                <path id="svg_27" d="m157.747025,115.5l7.25296,0" fill-opacity="null" stroke-width="null" stroke="#ffffff" fill="none"></path>
                <path id="svg_28" d="m156.500015,30.500015l8.5,0" fill-opacity="null" stroke-width="null" stroke="#ffffff" fill="none"></path>
                <path id="svg_29" d="m161.114059,35.88829l3.885925,0" fill-opacity="null" stroke-width="null" stroke="#ffffff" fill="none"></path>
                <path id="svg_30" d="m156.499985,44.5l8.5,0" fill-opacity="null" stroke-width="null" stroke="#ffffff" fill="none"></path>
                <path id="svg_31" d="m156.499985,47.25l8.5,0" fill-opacity="null" stroke-width="null" stroke="#ffffff" fill="none"></path>
                <path id="svg_32" d="m156.499985,50l8.5,0" fill-opacity="null" stroke-width="null" stroke="#ffffff" fill="none"></path>
                <path id="svg_33" d="m156.499985,52.75l8.5,0" fill-opacity="null" stroke-width="null" stroke="#ffffff" fill="none"></path>
                <path id="svg_34" d="m156.499985,55.5l8.5,0" fill-opacity="null" stroke-width="null" stroke="#ffffff" fill="none"></path>
                <path id="svg_35" d="m156.499985,58.25l8.5,0" fill-opacity="null" stroke-width="null" stroke="#ffffff" fill="none"></path>
                <path id="svg_36" d="m156.499985,61l8.5,0" fill-opacity="null" stroke-width="null" stroke="#ffffff" fill="none"></path>
                <path id="svg_37" d="m156.499985,63.75l8.5,0" fill-opacity="null" stroke-width="null" stroke="#ffffff" fill="none"></path>
                <path id="svg_38" d="m156.499985,66.5l8.5,0" fill-opacity="null" stroke-width="null" stroke="#ffffff" fill="none"></path>
                <path id="svg_39" d="m156.499985,69.25l8.5,0" fill-opacity="null" stroke-width="null" stroke="#ffffff" fill="none"></path>
                <path id="svg_40" d="m156.499985,72l8.5,0" fill-opacity="null" stroke-width="null" stroke="#ffffff" fill="none"></path>
                <path id="svg_41" d="m156.499985,74.5l8.5,0" fill-opacity="null" stroke-width="null" stroke="#ffffff" fill="none"></path>
                <path id="svg_42" d="m156.499985,77.25l8.5,0" fill-opacity="null" stroke-width="null" stroke="#ffffff" fill="none"></path>
                <path id="svg_43" d="m156.499985,80l8.5,0" fill-opacity="null" stroke-width="null" stroke="#ffffff" fill="none"></path>
                <path id="svg_44" d="m156.499985,82.5l8.5,0" fill-opacity="null" stroke-width="null" stroke="#ffffff" fill="none"></path>
                <path id="svg_45" d="m156.499985,85.25l8.5,0" fill-opacity="null" stroke-width="null" stroke="#ffffff" fill="none"></path>
                <path id="svg_46" d="m156.499985,88l8.5,0" fill-opacity="null" stroke-width="null" stroke="#ffffff" fill="none"></path>
                <path id="svg_47" d="m156.499985,90.75l8.5,0" fill-opacity="null" stroke-width="null" stroke="#ffffff" fill="none"></path>
                <path id="svg_48" d="m156.499985,93.5l8.5,0" fill-opacity="null" stroke-width="null" stroke="#ffffff" fill="none"></path>
                <path id="svg_49" d="m160.365829,96.25l4.634155,0" fill-opacity="null" stroke-width="null" stroke="#ffffff" fill="none"></path>
                <path id="svg_50" d="m160.490524,99l4.50946,0" fill-opacity="null" stroke-width="null" stroke="#ffffff" fill="none"></path>
                <path id="svg_51" d="m160.116409,101.75l4.883575,0" fill-opacity="null" stroke-width="null" stroke="#ffffff" fill="none"></path>
                <path id="svg_52" d="m159.866989,104.5l5.132996,0" fill-opacity="null" stroke-width="null" stroke="#ffffff" fill="none"></path>
                <path id="svg_53" d="m160.241104,107.25l4.758881,0" fill-opacity="null" stroke-width="null" stroke="#ffffff" fill="none"></path>
                <path id="svg_54" d="m156.499985,110l8.5,0" fill-opacity="null" stroke-width="null" stroke="#ffffff" fill="none"></path>
                <path id="svg_55" d="m156.499985,112.75l8.5,0" fill-opacity="null" stroke-width="null" stroke="#ffffff" fill="none"></path>
                <path id="svg_56" d="m156.499985,41.5l8.5,0" fill-opacity="null" stroke-width="null" stroke="#ffffff" fill="none"></path>
                <path id="svg_57" d="m156.499985,38.88121l8.5,0" fill-opacity="null" stroke-width="null" stroke="#ffffff" fill="none"></path>
                <path id="svg_58" d="m108.376938,57.503372c-8.198395,-18.906738 -13.385315,-30.284302 -13.552643,-30.284302c-0.167297,0 -6.692688,-12.716049 -8.365814,-15.058487c-1.673126,-2.342438 -4.684875,-4.684868 -4.684875,-4.852165" fill-opacity="null" stroke-width="null"
                  stroke="#ffffff" fill="none"></path>
                <path id="svg_59" d="m102.018906,58.507278l-12.716064,-29.615021c0,0.167297 -4.852173,-9.871689 -5.856079,-11.21022c-1.003876,-1.338547 -4.015594,-7.027306 -8.867767,-7.361938c-4.852188,-0.334633 -25.267014,0 -25.432129,-0.167297" fill-opacity="null"
                  stroke-width="null" stroke="#ffffff" fill="none"></path>
                <path id="svg_60" d="m45.633224,4.63134l-7.194611,-0.167297c0,0.167297 -3.848282,0.669243 -7.194611,3.513626c-3.346329,2.844383 -5.688766,6.354225 -5.688766,10.038994c0,3.684769 0,56.887878 0,56.88765" fill-opacity="null" stroke-width="null" stroke="#ffffff"
                  fill="none"></path>
                <path id="svg_61" d="m41.617706,10.487434c-1.338379,-0.000069 -3.513702,-0.000015 -5.354187,1.171196c-1.840485,1.171219 -4.015594,2.677063 -4.350235,5.856079c-0.334641,3.179016 -0.000015,57.900238 -0.000015,57.891556" fill-opacity="null" stroke-width="null"
                  stroke="#ffffff" fill="none"></path>
                <path id="svg_62" d="m25.220612,72.394638l6.692657,-0.167313" fill-opacity="null" stroke-width="null" stroke="#ffffff" fill="none"></path>
                <path id="svg_63" d="m25.221008,58.340271l6.692001,-0.168015" fill-opacity="null" stroke-width="null" stroke="#ffffff" fill="none"></path>
                <path id="svg_64" d="m25.220612,61.853668l6.692657,-0.167313" fill-opacity="null" stroke-width="null" stroke="#ffffff" fill="none"></path>
                <path id="svg_65" d="m25.220612,65.367325l6.692657,-0.167313" fill-opacity="null" stroke-width="null" stroke="#ffffff" fill="none"></path>
                <path id="svg_66" d="m25.220612,68.880981l6.692657,-0.167313" fill-opacity="null" stroke-width="null" stroke="#ffffff" fill="none"></path>
                <ellipse transform="rotate(49.8199, 88.048, 53.6551)" ry="8.700462" rx="3.262673" id="svg_67" cy="53.655085" cx="88.047976" fill-opacity="null" stroke-width="null" stroke="#ffffff" fill="none"></ellipse>
                <ellipse ry="16.062391" rx="16.062391" id="svg_69" cy="131.624607" cx="41.282995" fill-opacity="null" stroke-width="null" stroke="#ffffff" fill="none"></ellipse>
                <ellipse ry="21.751159" rx="21.751159" id="svg_70" cy="131.289969" cx="143.680733" fill-opacity="null" stroke-width="null" stroke="#ffffff" fill="none"></ellipse>
                <ellipse ry="9.202417" rx="9.202417" id="svg_72" cy="130.620711" cx="144.182672" fill-opacity="null" stroke-width="null" stroke="#ffffff" fill="none"></ellipse>
                <ellipse ry="6.776328" rx="6.776328" id="svg_71" cy="131.206323" cx="41.533956" fill-opacity="null" stroke-width="null" stroke="#ffffff" fill="none"></ellipse>
                <ellipse ry="3.680974" rx="3.680974" id="svg_73" cy="130.453401" cx="144.182675" fill-opacity="null" stroke-width="null" stroke="#ffffff" fill="none"></ellipse>
                <ellipse ry="3.179023" rx="3.179023" id="svg_68" cy="131.122668" cx="41.450299" fill-opacity="null" stroke-width="null" stroke="#ffffff" fill="none"></ellipse>
              </svg>