 <svg width="161" height="171" class="main-usliga__icon" xmlns="http://www.w3.org/2000/svg">
                <rect rx="8" id="svg_34" height="40.232424" width="71.233222" y="26.052798" x="12.194366" fill-opacity="null" stroke-width="null" stroke="#ffffff" fill="none"></rect>
                <rect id="svg_2" height="142.000219" width="97.000242" y="16.514542" x="0.999994" fill-opacity="null" stroke-width="2" stroke="#ffffff" fill="none"></rect>
                <rect id="svg_5" height="49.742824" width="61.991057" y="52.492428" x="97.956555" fill-opacity="null" stroke-width="2" stroke="#ffffff" fill="none"></rect>
                <path id="svg_8" d="m98.956146,102.735634l18.998016,29.995018" fill-opacity="null" stroke-width="2" stroke="#ffffff" fill="none"></path>
                <path id="svg_9" d="m159.447693,102.985146l-19.247223,29.49575" fill-opacity="null" stroke-width="2" stroke="#ffffff" fill="none"></path>
                <path id="svg_10" d="m117.954163,132.480652c0,-0.25 0,12.250977 -0.25,12.247986c0.25,0.002991 20.510986,0 20.496979,-0.248993c0.013,0.248993 0,7.752991 -0.25,7.747986c0.25,0.003998 14.5,0 14.498016,0c0.001984,0 0,-12.997986 0,-12.997986c0,0 -7.748993,-6.248993 -7.998993,-6.248993c0.25,0 -26.496002,-0.25 -26.496002,-0.5z"
                  fill-opacity="null" stroke-width="2" stroke="#ffffff" fill="none"></path>
                <ellipse ry="4.874297" rx="4.874297" id="svg_11" cy="143.104357" cx="145.32472" fill-opacity="null" stroke="#ffffff" fill="none"></ellipse>
                <rect id="svg_12" height="16.247656" width="24.496466" y="0.000002" x="36.965355" fill-opacity="null" stroke="#ffffff" fill="none"></rect>
                <rect id="svg_13" height="10.248522" width="17.74744" y="2.999569" x="40.46485" fill-opacity="null" stroke="#ffffff" fill="none"></rect>
                <rect id="svg_14" height="13.936066" width="15.747728" y="2.999569" x="61.511965" fill-opacity="null" stroke="#ffffff" fill="none"></rect>
                <path id="svg_15" d="m75.630524,3.18132l-0.062378,12.6623" fill-opacity="null" stroke-width="null" stroke="#ffffff" fill="none"></path>
                <path id="svg_16" d="m63.529419,3.181641l-0.062012,12.662003" fill-opacity="null" stroke-width="null" stroke="#ffffff" fill="none"></path>
                <path id="svg_17" d="m65.650513,3.18132l-0.062378,12.6623" fill-opacity="null" stroke-width="null" stroke="#ffffff" fill="none"></path>
                <path id="svg_18" d="m67.708893,3.18132l-0.062378,12.6623" fill-opacity="null" stroke-width="null" stroke="#ffffff" fill="none"></path>
                <path id="svg_19" d="m69.704895,3.18132l-0.062378,12.6623" fill-opacity="null" stroke-width="null" stroke="#ffffff" fill="none"></path>
                <path id="svg_20" d="m71.700897,3.18132l-0.062378,12.6623" fill-opacity="null" stroke-width="null" stroke="#ffffff" fill="none"></path>
                <path id="svg_21" d="m73.696899,3.24366l-0.062378,12.6623" fill-opacity="null" stroke-width="null" stroke="#ffffff" fill="none"></path>
                <rect id="svg_22" height="13.936066" width="15.747728" y="2.999569" x="21.15479" fill-opacity="null" stroke="#ffffff" fill="none"></rect>
                <path id="svg_23" d="m35.273544,3.18132l-0.062378,12.6623" fill-opacity="null" stroke-width="null" stroke="#ffffff" fill="none"></path>
                <path id="svg_24" d="m23.109818,3.181641l-0.061996,12.662003" fill-opacity="null" stroke-width="null" stroke="#ffffff" fill="none"></path>
                <path id="svg_25" d="m25.293304,3.18132l-0.062378,12.6623" fill-opacity="null" stroke-width="null" stroke="#ffffff" fill="none"></path>
                <path id="svg_26" d="m27.35173,3.18132l-0.062378,12.6623" fill-opacity="null" stroke-width="null" stroke="#ffffff" fill="none"></path>
                <path id="svg_27" d="m29.347778,3.18132l-0.062378,12.6623" fill-opacity="null" stroke-width="null" stroke="#ffffff" fill="none"></path>
                <path id="svg_28" d="m31.343826,3.18132l-0.062378,12.6623" fill-opacity="null" stroke-width="null" stroke="#ffffff" fill="none"></path>
                <path id="svg_29" d="m33.339874,3.18132l-0.062378,12.6623" fill-opacity="null" stroke-width="null" stroke="#ffffff" fill="none"></path>
                <path id="svg_30" d="m1.777145,19.274643l96.309006,-0.063004" fill-opacity="null" stroke-width="null" stroke="#ffffff" fill="none"></path>
                <rect rx="8" id="svg_31" height="34.244344" width="65.120389" y="120.943442" x="15.188406" fill-opacity="null" stroke-width="null" stroke="#ffffff" fill="none"></rect>
                <rect rx="8" id="svg_32" height="40.232424" width="71.233222" y="118.053697" x="12.194366" fill-opacity="null" stroke-width="null" stroke="#ffffff" fill="none"></rect>
                <rect id="svg_33" height="13.098929" width="3.555424" y="133.917627" x="22.860632" fill-opacity="null" stroke-width="null" stroke="#ffffff" fill="none"></rect>
                <rect id="svg_35" height="13.098929" width="3.555424" y="41.916728" x="22.860632" fill-opacity="null" stroke-width="null" stroke="#ffffff" fill="none"></rect>
                <rect rx="8" id="svg_36" height="40.232424" width="71.233222" y="72.886589" x="12.194366" fill-opacity="null" stroke-width="null" stroke="#ffffff" fill="none"></rect>
                <rect id="svg_37" height="13.098929" width="3.555424" y="88.750519" x="22.860632" fill-opacity="null" stroke-width="null" stroke="#ffffff" fill="none"></rect>
                <rect rx="8" id="svg_38" height="34.244344" width="65.120389" y="28.942543" x="15.188406" fill-opacity="null" stroke-width="null" stroke="#ffffff" fill="none"></rect>
                <rect rx="8" id="svg_39" height="34.244344" width="65.120389" y="75.943002" x="15.188406" fill-opacity="null" stroke-width="null" stroke="#ffffff" fill="none"></rect>
                <path transform="rotate(90, 87.2836, 164.966)" id="svg_40" d="m81.709076,170.496124l11.148987,0l-0.163971,-11.061157" fill-opacity="null" stroke-width="2" stroke="#ffffff" fill="none"></path>
                <path id="svg_42" d="m22.918976,121.044075l33.667084,34.061394" fill-opacity="null" stroke="#ffffff" fill="none"></path>
                <path id="svg_43" d="m42.252151,121.16848l33.667007,33.501015" fill-opacity="null" stroke="#ffffff" fill="none"></path>
                <path id="svg_44" d="m31.252411,121.044075l33.667084,34.061394" fill-opacity="null" stroke="#ffffff" fill="none"></path>
                <path id="svg_45" d="m27.25235,121.044075l33.667145,33.999046" fill-opacity="null" stroke="#ffffff" fill="none"></path>
                <path id="svg_46" d="m22.918976,29.015923l33.667084,34.123718" fill-opacity="null" stroke="#ffffff" fill="none"></path>
                <path id="svg_47" d="m42.252151,29.015648l33.667007,33.500992" fill-opacity="null" stroke="#ffffff" fill="none"></path>
                <path id="svg_48" d="m31.252411,29.015923l33.667084,34.123718" fill-opacity="null" stroke="#ffffff" fill="none"></path>
                <path id="svg_49" d="m27.25235,29.015923l33.667145,34.123718" fill-opacity="null" stroke="#ffffff" fill="none"></path>
                <path id="svg_50" d="m22.918976,75.943779l33.667084,34.248398" fill-opacity="null" stroke="#ffffff" fill="none"></path>
                <path id="svg_51" d="m42.252151,75.943504l33.667007,33.500992" fill-opacity="null" stroke="#ffffff" fill="none"></path>
                <path id="svg_52" d="m31.252411,75.943779l33.667084,34.18605" fill-opacity="null" stroke="#ffffff" fill="none"></path>
                <path id="svg_53" d="m27.25235,75.943779l33.667145,34.18605" fill-opacity="null" stroke="#ffffff" fill="none"></path>
                <path id="svg_54" d="m116.25116,129.24765l26.281006,-0.171021" fill-opacity="null" stroke="#ffffff" fill="none"></path>
                <path id="svg_55" d="m133.829163,128.735626l9.044983,-26.28199" fill-opacity="null" stroke="#ffffff" fill="none"></path>
                <path id="svg_56" d="m137.75415,128.906647l12.628998,-26.965004" fill-opacity="null" stroke="#ffffff" fill="none"></path>
                <path stroke-width="2" id="svg_57" d="m98.160736,72.929726l61.608459,-0.170639" fill-opacity="null" stroke="#ffffff" fill="none"></path>
                <path id="svg_58" d="m98.161163,69.004646l61.608002,-0.171005" fill-opacity="null" stroke="#ffffff" fill="none"></path>
                <path id="svg_59" d="m128.87915,68.833641l0,8.363007" fill-opacity="null" stroke-width="2" stroke="#ffffff" fill="none"></path>
                <path id="svg_60" d="m118.639954,69.175224l-0.000031,3.754547" fill-opacity="null" stroke="#ffffff" fill="none"></path>
                <path id="svg_61" d="m100.720642,69.175224l-0.000031,3.754547" fill-opacity="null" stroke="#ffffff" fill="none"></path>
                <path id="svg_62" d="m104.304504,69.175224l-0.000031,3.754547" fill-opacity="null" stroke="#ffffff" fill="none"></path>
                <path id="svg_63" d="m107.888367,69.175224l-0.000031,3.754547" fill-opacity="null" stroke="#ffffff" fill="none"></path>
                <path id="svg_64" d="m111.472229,69.175224l-0.000031,3.754547" fill-opacity="null" stroke="#ffffff" fill="none"></path>
                <path id="svg_65" d="m115.056091,69.175224l-0.000031,3.754547" fill-opacity="null" stroke="#ffffff" fill="none"></path>
                <path id="svg_66" d="m3.533173,170.496124l11.148987,0l-0.163971,-11.061157" fill-opacity="null" stroke-width="2" stroke="#ffffff" fill="none"></path>
                <path id="svg_68" d="m70.309021,25.623726l-0.062317,-6.046829" fill-opacity="null" stroke="#ffffff" fill="none"></path>
                <path id="svg_69" d="m70.354553,118.073616l-0.062347,-4.987137" fill-opacity="null" stroke="#ffffff" fill="none"></path>
                <path id="svg_70" d="m26.218475,118.073616l-0.062332,-4.987137" fill-opacity="null" stroke="#ffffff" fill="none"></path>
                <path id="svg_71" d="m26.218475,25.623726l-0.062332,-6.046829" fill-opacity="null" stroke="#ffffff" fill="none"></path>
                <path id="svg_72" d="m70.309021,72.44088l-0.062317,-6.046906" fill-opacity="null" stroke="#ffffff" fill="none"></path>
                <path id="svg_73" d="m26.218475,72.44088l-0.062332,-6.046906" fill-opacity="null" stroke="#ffffff" fill="none"></path>
              </svg>